<svg width="926" height="484" viewBox="0 0 926 484" fill="none" xmlns="http://www.w3.org/2000/svg">
<g clip-path="url(#clip0)">
<path d="M-0.837326 7.45743C-1.35793 11.362 -1.74839 20.4726 -1.74839 27.631C-1.74839 35.9607 -2.269 41.2969 -3.31021 42.3381C-4.48158 43.5095 -4.48158 44.6809 -3.31021 47.1537C-1.87854 50.1472 -2.00869 50.4075 -5.13234 50.4075C-6.82431 50.4075 -8.64644 51.3186 -9.03689 52.3598C-9.5575 53.5312 -13.4621 56.5247 -17.8872 58.9976C-26.6074 64.0735 -42.0955 74.8761 -42.0955 75.9173C-42.0955 76.8284 -33.115 72.7937 -20.0998 66.0258C-13.3319 62.3815 -6.82431 59.5182 -5.52279 59.5182C-4.22127 59.5182 -2.5293 58.3468 -1.61824 56.785L-0.186567 54.0518L2.28632 56.785C3.71799 58.3468 5.54011 59.5182 6.45118 59.5182C7.36224 59.5182 15.692 63.4227 25.193 68.2383C34.6941 73.054 42.7635 76.6982 43.154 76.3078C43.5445 75.9173 36.9067 71.1017 28.4468 65.7655C20.1171 60.2991 12.0477 54.5724 10.4859 53.1407C8.92406 51.5789 6.45118 50.4075 4.88935 50.4075C2.41647 50.4075 2.28632 50.0171 3.45768 47.6743C4.36875 46.2427 4.4989 44.0301 3.97829 42.8587C3.58784 41.6874 2.93708 34.1386 2.67677 26.3294C2.41647 18.3902 1.63556 9.40971 1.11495 6.15592L0.0737365 0.299083L-0.837326 7.45743Z" fill="white" fill-opacity="0.1"/>
<path d="M91.5708 8.62908C91.0502 13.1844 90.6598 22.295 90.6598 28.8026C90.6598 36.2213 90.1392 41.2972 89.0979 42.3384C87.9266 43.5098 87.9266 44.6811 89.0979 47.154C90.3995 50.0174 90.2693 50.4078 88.0567 50.4078C86.7552 50.4078 84.2823 51.8395 82.5903 53.4013C80.8984 55.0933 76.7335 58.0868 73.0893 60.1692C64.2389 65.115 50.0524 75.2668 50.8333 76.0477C51.0936 76.4382 58.9027 72.7939 68.1435 68.1085C77.2541 63.423 85.8441 59.5184 87.0155 59.5184C88.1869 59.5184 90.1392 58.2169 91.1804 56.6551C92.8723 54.1822 93.2628 54.1822 94.0437 56.0044C94.4342 57.1757 96.1261 58.4772 97.5578 58.8677C99.1196 59.3883 108.23 63.5532 117.601 68.3688C127.102 73.0542 135.172 76.5683 135.562 76.1779C135.953 75.9176 129.315 71.102 120.855 65.7657C112.525 60.2994 104.456 54.5727 102.894 53.141C101.332 51.5792 98.8593 50.4078 97.2975 50.4078C94.9548 50.4078 94.6945 50.0174 95.996 47.9349C96.907 46.6334 97.1674 44.4208 96.6467 43.1193C96.1261 41.8178 95.4754 33.6182 95.0849 25.0282C94.8246 16.4382 94.0437 7.32756 93.5231 4.85467C92.4819 0.559663 92.3517 0.819967 91.5708 8.62908Z" fill="white" fill-opacity="0.1"/>
<path d="M647.319 7.45817C645.106 23.9875 644.065 47.1545 645.367 48.7163C646.408 50.0178 646.017 50.4083 643.805 50.4083C642.113 50.4083 639.64 51.5796 638.078 53.1415C636.516 54.5731 628.447 60.2998 620.117 65.7662C611.657 71.1024 605.019 75.918 605.41 76.1783C605.8 76.5688 613.87 72.9245 623.371 68.2391C632.872 63.4235 641.202 59.5189 641.983 59.5189C642.764 59.5189 644.455 58.3475 645.757 56.9159L648.1 54.3128L649.922 56.9159C650.963 58.3475 652.785 59.5189 653.957 59.5189C655.128 59.5189 663.718 63.4235 672.829 68.1089C682.069 72.7944 689.878 76.4386 690.139 76.0482C690.92 75.2673 676.733 65.1154 667.883 60.1697C664.369 58.0872 660.074 55.0937 658.382 53.4018C656.69 51.8399 654.217 50.4083 652.915 50.4083C650.703 50.4083 650.573 50.0178 651.874 47.1545C653.046 44.6816 653.046 43.5102 651.874 42.3389C650.833 41.2976 650.312 35.7011 650.182 26.9809C650.182 19.4321 649.662 10.3215 649.141 6.80741L648.23 0.299816L647.319 7.45817Z" fill="white" fill-opacity="0.1"/>
<path d="M739.596 8.10819C739.076 12.4032 738.425 21.5138 738.295 28.2817C738.035 35.0496 737.384 41.6874 736.863 42.8587C736.473 44.0301 736.603 46.2427 737.514 47.6743C738.685 50.0171 738.555 50.4075 736.082 50.4075C734.52 50.4075 732.048 51.5789 730.486 53.1407C728.924 54.5724 720.855 60.2991 712.525 65.7655C704.065 71.1017 697.427 75.9173 697.818 76.3078C698.208 76.6982 706.278 73.054 715.779 68.2383C725.28 63.4227 733.609 59.5182 734.52 59.5182C735.432 59.5182 737.254 58.3468 738.685 56.785L741.158 54.0518L742.59 56.785C743.501 58.3468 745.193 59.5182 746.494 59.5182C747.796 59.5182 754.304 62.3815 761.071 66.0258C774.087 72.7937 783.067 76.8284 783.067 75.9173C783.067 74.8761 767.579 64.0735 758.859 58.9976C754.434 56.5247 750.529 53.5312 750.009 52.3598C749.618 51.3186 747.796 50.4075 746.104 50.4075C742.98 50.4075 742.85 50.1472 744.282 47.1537C745.453 44.6809 745.453 43.5095 744.282 42.3381C743.241 41.2969 742.72 35.5702 742.59 26.3294C742.59 18.5203 742.069 9.40971 741.549 6.15592L740.638 0.299083L739.596 8.10819Z" fill="white" fill-opacity="0.1"/>
<path d="M832.135 7.45742C831.614 11.362 831.224 20.4726 831.224 27.6309C831.224 35.9607 830.703 41.2969 829.662 42.3381C828.49 43.5095 828.49 44.6808 829.662 47.1537C831.093 50.1472 830.963 50.4075 827.84 50.4075C826.148 50.4075 824.325 51.3186 823.935 52.3598C823.414 53.5312 819.51 56.5247 815.085 58.9975C806.365 64.0735 790.876 74.8761 790.876 75.9173C790.876 76.8283 799.857 72.7936 812.872 66.0257C819.64 62.3815 825.887 59.5182 826.798 59.5182C827.709 59.5182 829.662 58.2166 831.093 56.6548C833.436 54.3121 833.827 54.1819 834.607 56.0041C834.998 57.1754 836.69 58.4769 838.122 58.8674C839.683 59.388 848.664 63.5529 858.165 68.3685C867.666 73.0539 875.735 76.6982 876.126 76.3077C876.516 75.9173 869.879 71.1017 861.419 65.7654C853.089 60.2991 845.02 54.5724 843.458 53.1407C841.896 51.5789 839.423 50.4075 837.991 50.4075C835.519 50.4075 835.388 50.0171 836.69 47.1537C837.601 45.0713 837.731 43.3793 836.82 42.3381C836.169 41.427 835.519 33.8782 835.258 25.6787C835.128 17.4791 834.477 8.36848 833.957 5.50514L833.046 0.299067L832.135 7.45742Z" fill="white" fill-opacity="0.1"/>
<path d="M924.542 8.62878C924.022 13.1841 923.631 22.2947 923.631 28.8023C923.631 36.221 923.111 41.2969 922.069 42.3381C920.898 43.5095 920.898 44.6808 922.069 47.1537C923.501 50.1472 923.371 50.4075 920.377 50.4075C918.555 50.4075 916.603 51.4487 915.822 53.0106C915.041 54.4422 911.657 57.0453 908.273 58.7372C901.896 61.991 883.284 74.7459 883.284 75.7871C883.284 76.8283 892.004 72.9238 905.28 66.0257C912.048 62.3815 918.555 59.5181 919.857 59.5181C921.158 59.5181 923.111 58.2166 924.152 56.6548C925.844 54.1819 926.234 54.1819 927.015 56.004C927.406 57.1754 929.098 58.4769 930.529 58.8674C932.091 59.388 941.072 63.5529 950.573 68.3685C960.074 73.0539 968.143 76.6982 968.534 76.3077C968.924 75.9173 962.286 71.1017 953.826 65.7654C945.497 60.2991 937.427 54.5724 935.866 53.1407C934.304 51.5789 931.831 50.4075 930.269 50.4075C927.926 50.4075 927.666 50.0171 928.967 47.9346C929.879 46.6331 930.139 44.4205 929.618 43.119C929.098 41.6873 928.447 33.6179 928.056 25.0279C927.666 16.4379 927.015 7.32726 926.364 4.85437C925.453 0.559362 925.323 0.819666 924.542 8.62878Z" fill="white" fill-opacity="0.1"/>
<path d="M183.978 10.0609C183.458 14.486 183.067 23.3364 183.067 29.4535C183.067 35.5706 182.547 41.4275 181.896 42.4687C181.245 43.5099 181.115 45.5923 181.766 47.2843C182.807 49.7572 182.417 50.2778 179.033 50.9285C176.95 51.319 175.258 52.3602 175.258 53.2713C175.258 54.1823 172.135 56.6552 168.23 58.6075C159.64 63.1628 142.33 75.1368 143.241 76.0479C143.501 76.4383 151.31 72.7941 160.551 68.1086C169.662 63.4231 178.252 59.5186 179.423 59.5186C180.594 59.5186 182.417 58.3472 183.458 56.9155L185.28 54.3125L187.623 56.9155C188.924 58.3472 191.007 59.5186 192.308 59.5186C193.61 59.5186 197.644 61.3407 201.028 63.4231C208.837 68.2387 227.319 76.8288 228.1 76.0479C228.751 75.3971 205.453 59.6487 199.206 56.3949C196.994 55.3537 194.781 53.5316 194.391 52.3602C193.87 51.319 192.438 50.4079 191.007 50.4079C189.184 50.4079 188.534 49.627 188.794 46.7637C189.054 40.1259 186.842 7.32768 185.801 4.46434C185.02 2.51206 184.499 3.94373 183.978 10.0609Z" fill="white" fill-opacity="0.1"/>
<path d="M276.256 15.3967C275.735 22.8154 275.345 33.7481 275.085 39.605C274.824 48.7156 274.434 50.4076 272.612 50.4076C271.44 50.4076 269.618 51.4488 268.707 52.8805C267.796 54.182 264.933 56.2644 262.46 57.5659C255.822 60.9499 234.868 75.2666 235.518 75.9173C236.169 76.6982 250.746 69.9303 260.898 64.2037C265.453 61.6006 270.269 59.5182 271.57 59.5182C273.002 59.5182 274.824 58.3468 275.865 56.9152L277.688 54.3121L280.03 56.9152C281.332 58.3468 283.414 59.5182 284.846 59.5182C286.147 59.5182 289.662 61.08 292.785 63.0323C299.423 67.1972 319.857 76.8284 320.508 76.0475C321.158 75.3967 304.629 63.9434 295.649 58.7373C292.134 56.785 288.36 54.0518 287.449 52.7503C286.538 51.4488 284.586 50.4076 283.024 50.4076C281.462 50.4076 280.681 49.7568 281.072 48.7156C281.983 46.3729 279.38 5.89564 278.078 3.68306C277.427 2.51169 276.777 7.32731 276.256 15.3967Z" fill="white" fill-opacity="0.1"/>
<path d="M462.504 4.85443C461.332 9.01929 459.12 46.6332 459.9 48.7156C460.291 49.7568 459.51 50.4076 457.948 50.4076C456.386 50.4076 454.434 51.4488 453.523 52.7503C452.612 54.0518 448.968 56.785 445.323 58.7373C436.343 63.9434 419.814 75.3967 420.464 76.0475C421.115 76.8284 441.549 67.1972 448.187 63.0323C451.31 61.08 454.825 59.5182 456.126 59.5182C457.558 59.5182 459.64 58.3468 460.942 56.9152L463.284 54.3121L465.107 56.9152C466.148 58.3468 467.97 59.5182 469.402 59.5182C470.703 59.5182 475.519 61.6006 480.074 64.2037C489.835 69.8002 504.803 76.6982 505.454 75.9173C506.104 75.3967 484.499 60.6896 478.512 57.5659C476.039 56.2644 473.176 54.182 472.265 52.8805C471.354 51.4488 469.532 50.4076 468.36 50.4076C466.408 50.4076 466.148 48.4553 465.757 34.3989C465.107 13.3143 463.675 0.429264 462.504 4.85443Z" fill="white" fill-opacity="0.1"/>
<path d="M554.911 6.15631C553.609 12.5338 551.527 46.7637 552.308 48.716C552.698 49.7572 551.917 50.4079 550.356 50.4079C548.794 50.4079 546.842 51.4492 545.93 52.7507C545.019 54.1823 542.807 56.0045 540.985 56.9155C535.258 59.7789 512.221 75.5272 512.872 76.0479C513.653 76.8288 532.134 68.2387 539.944 63.4231C543.327 61.3407 547.362 59.5186 548.664 59.5186C549.965 59.5186 552.048 58.3472 553.349 56.9155L555.692 54.3125L557.514 56.9155C558.555 58.3472 560.377 59.5186 561.549 59.5186C562.72 59.5186 571.31 63.4231 580.421 68.1086C589.662 72.7941 597.471 76.4383 597.731 76.0479C598.902 74.8765 569.618 55.614 566.755 55.614C566.234 55.614 565.714 54.703 565.714 53.6617C565.714 52.4904 564.152 51.319 561.939 50.9285C558.555 50.2778 558.165 49.7572 559.206 47.2843C559.857 45.5923 559.727 43.5099 559.076 42.4687C558.425 41.4275 557.904 35.05 557.774 28.2821C557.774 21.5142 557.254 12.6639 556.733 8.75935C555.822 1.73115 555.822 1.73115 554.911 6.15631Z" fill="white" fill-opacity="0.1"/>
<path d="M368.664 16.8287C368.144 24.2474 367.623 34.7897 367.493 40.2561C367.232 48.8461 366.842 50.4079 365.02 50.4079C363.848 50.4079 362.026 51.4491 361.115 52.8808C360.204 54.1823 357.341 56.2647 354.868 57.5663C348.751 60.6899 327.276 75.3971 327.927 76.0478C328.707 76.6986 344.716 69.2799 353.697 64.0739C357.992 61.601 362.677 59.5185 363.979 59.5185C365.28 59.5185 367.363 58.217 368.404 56.6552L370.486 53.7919L372.569 56.6552C373.61 58.217 375.692 59.5185 376.994 59.5185C378.295 59.5185 382.981 61.601 387.276 64.0739C396.126 69.2799 412.265 76.6986 413.046 76.0478C413.566 75.3971 396.907 63.8136 388.057 58.7376C384.543 56.7854 380.768 54.0522 379.857 52.7506C378.946 51.4491 377.124 50.4079 375.953 50.4079C374.13 50.4079 373.74 48.8461 373.48 40.2561C372.959 21.1238 371.527 3.55326 370.486 3.55326C369.966 3.55326 369.055 9.54024 368.664 16.8287Z" fill="white" fill-opacity="0.1"/>
<path d="M138.425 85.5488C137.124 92.3167 135.171 125.766 135.822 128.629C136.343 130.581 135.822 131.102 133.219 131.102C131.397 131.102 129.705 131.883 129.315 132.664C129.054 133.575 123.197 137.74 116.56 141.905C109.792 146.069 102.243 151.145 99.77 153.358L95.2147 157.132L100.421 155.05C107.449 152.187 120.074 145.809 126.061 142.035C128.794 140.343 132.048 138.911 133.479 138.911C134.911 138.911 136.733 137.87 137.384 136.568C138.685 134.486 138.946 134.486 140.638 136.568C141.549 137.87 143.371 138.911 144.542 138.911C145.844 138.911 150.79 141.124 155.475 143.987C163.675 148.672 181.115 157.132 182.937 157.132C184.499 157.132 165.236 143.727 157.427 139.432C153.132 136.959 149.098 134.095 148.707 133.054C148.317 132.013 146.495 131.102 144.672 131.102C141.028 131.102 140.898 130.711 142.85 126.937C143.892 125.115 143.892 123.944 142.85 122.902C142.069 122.121 141.419 115.874 141.288 108.325C141.158 101.167 140.768 92.0564 140.247 88.1518C139.336 81.2538 139.336 81.1236 138.425 85.5488Z" fill="white" fill-opacity="0.1"/>
<path d="M230.833 85.5487C230.312 88.0216 229.662 97.0021 229.271 105.462C228.881 113.922 228.23 121.471 227.839 122.121C227.449 122.772 227.449 125.115 227.97 127.197C228.751 130.581 228.49 131.102 226.148 131.102C224.716 131.102 223.024 131.883 222.503 132.794C221.983 133.705 217.688 136.829 213.002 139.562C204.022 144.898 188.273 155.701 188.273 156.612C188.273 157.913 213.653 145.679 219.77 141.384C221.592 139.952 224.195 138.911 225.497 138.911C226.668 138.911 228.751 138 229.922 136.959C231.874 135.137 232.265 135.137 233.826 136.959C234.738 138 236.299 138.911 237.341 138.911C238.252 138.911 243.328 141.254 248.534 144.247C253.74 147.111 259.857 150.364 262.2 151.406C264.412 152.447 268.447 154.139 270.92 155.18C273.393 156.221 275.475 156.872 275.475 156.612C275.475 155.701 252.959 140.733 247.362 137.87C244.369 136.308 241.636 134.225 241.245 133.054C240.725 132.013 238.902 131.102 237.08 131.102C233.436 131.102 233.306 130.711 235.258 126.937C236.299 125.115 236.299 123.943 235.258 122.902C234.477 122.121 233.826 115.744 233.696 107.675C233.696 100.126 233.176 91.0151 232.655 87.501L231.744 80.9934L230.833 85.5487Z" fill="white" fill-opacity="0.1"/>
<path d="M323.111 88.1519C322.2 95.5705 320.768 119.388 320.768 126.807C320.898 130.191 320.247 131.102 318.425 131.102C316.994 131.102 315.432 131.883 314.911 132.924C314.39 133.965 310.746 136.568 306.972 138.781C297.861 144.117 280.681 155.701 280.681 156.482C280.681 157.653 289.662 153.488 303.848 146.069C311.267 142.165 317.905 138.911 318.685 138.911C319.466 138.911 321.158 138 322.33 136.959C324.282 135.137 324.672 135.137 326.234 136.959C327.145 138 328.577 138.911 329.488 138.911C330.269 138.911 337.167 142.165 344.586 146.069C358.642 153.358 367.883 157.523 367.883 156.612C367.883 155.701 345.367 140.733 339.77 137.87C336.777 136.308 334.043 134.226 333.653 133.054C333.132 132.013 331.31 131.102 329.618 131.102C326.495 131.102 326.364 130.842 327.796 127.848C328.967 125.375 328.967 124.204 327.796 123.033C326.755 121.991 326.234 116.265 326.104 107.024C326.104 99.2148 325.584 90.1042 325.063 86.8504L324.152 80.9935L323.111 88.1519Z" fill="white" fill-opacity="0.1"/>
<path d="M415.649 87.3712C415.128 90.8853 414.737 99.9959 414.737 107.545C414.737 116.525 414.217 121.992 413.176 123.033C412.004 124.204 412.004 125.376 413.176 127.848C414.607 130.842 414.477 131.102 411.354 131.102C409.662 131.102 407.839 132.013 407.319 133.055C406.928 134.226 404.195 136.308 401.202 137.87C395.605 140.733 373.089 155.701 373.089 156.612C373.089 157.653 382.59 153.228 396.256 146.07C403.675 142.165 410.312 138.911 411.093 138.911C411.874 138.911 413.566 138 414.737 136.959C416.69 135.137 417.08 135.137 418.642 136.959C419.553 138 420.985 138.911 422.026 138.911C422.937 138.911 429.705 142.165 437.124 146.07C451.31 153.488 460.291 157.653 460.291 156.482C460.291 155.701 443.111 144.117 434 138.781C430.226 136.569 426.581 133.966 426.061 132.924C425.54 131.883 423.588 131.102 421.766 131.102C418.902 131.102 418.772 130.842 419.944 128.369C420.855 126.937 420.985 124.725 420.594 123.553C420.074 122.382 419.423 114.833 419.163 106.894C418.772 99.0849 418.121 89.9742 417.601 86.7205L416.56 80.9938L415.649 87.3712Z" fill="white" fill-opacity="0.1"/>
<path d="M508.056 88.1519C507.536 92.0564 507.145 101.167 507.145 108.325C507.145 116.135 506.625 121.991 505.714 122.902C504.673 123.944 504.673 125.115 505.714 126.937C507.666 130.712 507.536 131.102 503.892 131.102C502.069 131.102 500.247 132.013 499.727 133.054C499.336 134.226 496.603 136.308 493.61 137.87C488.013 140.733 465.497 155.701 465.497 156.612C465.497 157.523 474.738 153.358 488.794 146.069C496.213 142.165 502.981 138.911 503.631 138.911C504.412 138.911 505.974 138 507.145 136.959C509.098 135.137 509.488 135.137 511.05 136.959C511.961 138 513.783 138.911 515.215 138.911C516.646 138.911 519.38 139.952 521.202 141.384C527.319 145.679 552.699 157.913 552.699 156.612C552.699 155.701 536.95 144.898 527.97 139.562C523.284 136.829 518.989 133.705 518.469 132.794C517.948 131.883 516.256 131.102 514.824 131.102C512.482 131.102 512.221 130.581 513.002 127.197C513.523 125.115 513.523 122.772 513.132 122.122C512.612 121.471 511.961 113.922 511.571 105.462C511.31 97.0022 510.529 88.0217 509.879 85.5488C508.968 81.1237 508.968 81.1237 508.056 88.1519Z" fill="white" fill-opacity="0.1"/>
<path d="M600.464 90.2343C599.944 95.18 599.553 104.161 599.553 110.278C599.553 116.655 598.902 122.121 598.121 122.902C597.08 123.944 597.08 125.115 598.121 126.937C600.074 130.712 599.944 131.102 596.299 131.102C594.477 131.102 592.655 132.013 592.135 133.054C591.744 134.226 589.531 136.048 587.319 137.089C581.592 140.082 557.774 156.091 558.295 156.612C559.076 157.393 575.735 149.584 585.497 143.987C590.182 141.124 595.128 138.911 596.43 138.911C597.601 138.911 599.423 137.87 600.334 136.568C602.026 134.486 602.286 134.486 603.588 136.568C604.239 137.87 606.061 138.911 607.492 138.911C609.054 138.911 611.787 139.952 613.61 141.384C617.644 144.117 633.002 151.926 640.551 155.05L645.757 157.132L641.202 153.358C638.729 151.145 631.18 146.069 624.412 141.905C617.774 137.74 611.918 133.575 611.657 132.664C611.267 131.883 609.575 131.102 607.883 131.102C605.28 131.102 604.889 130.581 605.15 126.807C605.54 120.039 603.458 86.9805 602.286 83.8568C601.505 81.9046 600.985 83.7267 600.464 90.2343Z" fill="white" fill-opacity="0.1"/>
<path d="M46.0173 84.2473C44.8459 86.8503 42.6334 127.197 43.4143 129.41C43.8047 130.581 43.0238 131.102 40.8112 131.102C38.9891 131.102 37.2971 131.883 36.9067 132.664C36.6464 133.575 30.7895 137.74 24.1518 141.905C17.3839 146.069 9.83508 151.145 7.3622 153.358L2.80688 157.132L8.01296 155.05C15.0412 152.187 27.6659 145.809 33.6529 142.035C36.3861 140.343 39.6399 138.911 41.0715 138.911C42.5032 138.911 44.3253 137.87 45.1062 136.568C46.4078 134.486 46.4078 134.486 47.7093 136.568C48.4902 137.87 50.3123 138.911 51.8741 138.911C53.3058 138.911 57.8611 140.993 62.026 143.466C69.1843 147.761 88.577 157.132 90.3991 157.132C91.9609 157.132 73.219 144.117 65.0195 139.432C60.7245 136.959 56.6898 134.095 56.2993 133.054C55.9088 132.013 54.2169 131.102 52.655 131.102C49.6616 131.102 49.6616 130.842 49.2711 114.443C48.7505 95.4404 47.1887 81.384 46.0173 84.2473Z" fill="white" fill-opacity="0.1"/>
<path d="M692.742 94.1388C692.351 100.516 691.831 111.449 691.57 118.347C691.31 130.711 691.18 131.102 688.317 131.102C686.755 131.102 685.063 132.013 684.672 133.054C684.282 134.095 680.247 136.959 675.952 139.432C667.753 144.117 649.011 157.132 650.573 157.132C652.395 157.132 671.787 147.761 678.946 143.466C683.111 140.993 687.666 138.911 689.098 138.911C690.659 138.911 692.482 137.87 693.262 136.568C694.564 134.486 694.564 134.486 695.865 136.568C696.646 137.87 698.469 138.911 699.9 138.911C701.332 138.911 704.586 140.343 707.319 142.035C713.306 145.809 725.931 152.187 732.959 155.05L738.165 157.132L733.61 153.358C731.137 151.145 723.588 146.069 716.82 141.905C710.182 137.74 704.325 133.575 704.065 132.664C703.675 131.883 701.983 131.102 700.161 131.102C697.948 131.102 697.167 130.581 697.557 129.41C698.469 126.807 695.865 86.7202 694.694 84.3774C694.043 83.2061 693.262 87.1106 692.742 94.1388Z" fill="white" fill-opacity="0.1"/>
<path d="M785.149 96.2217C784.629 103.51 784.108 114.443 783.978 120.3C783.718 129.931 783.457 131.102 781.245 131.102C779.943 131.102 777.6 132.274 776.039 133.836C774.477 135.267 767.058 140.473 759.509 145.419C751.83 150.235 745.193 154.92 744.802 155.701C743.631 157.523 761.071 149.584 771.353 143.597C775.778 140.994 780.464 138.912 781.765 138.912C783.067 138.912 784.889 137.87 785.67 136.569C786.971 134.486 786.971 134.486 788.273 136.569C789.054 137.87 790.746 138.912 792.177 138.912C793.479 138.912 798.034 140.994 802.199 143.467C806.364 145.94 814.433 149.974 820.16 152.577C830.442 157.133 830.572 157.133 826.407 153.619C824.195 151.536 816.646 146.46 809.748 142.165C802.72 137.87 796.733 133.575 796.472 132.664C796.082 131.883 794.39 131.102 792.568 131.102C790.355 131.102 789.574 130.582 789.965 129.41C791.006 126.807 788.273 85.0286 786.971 83.8573C786.451 83.2065 785.54 88.803 785.149 96.2217Z" fill="white" fill-opacity="0.1"/>
<path d="M878.989 84.2473C877.818 86.8503 875.475 127.197 876.386 129.41C876.777 130.581 875.996 131.102 873.783 131.102C871.961 131.102 870.269 131.883 869.879 132.664C869.618 133.575 863.761 137.74 857.124 141.905C850.356 146.069 842.807 151.145 840.334 153.358L835.779 157.132L840.985 155.05C848.013 152.187 860.638 145.809 866.625 142.035C869.358 140.343 872.612 138.911 874.043 138.911C875.475 138.911 877.297 137.87 878.078 136.568C879.38 134.486 879.38 134.486 880.681 136.568C881.462 137.87 883.284 138.911 884.846 138.911C886.278 138.911 890.833 140.993 894.998 143.466C902.156 147.761 921.419 157.132 923.371 157.132C924.803 157.132 908.924 146.069 899.293 140.213C894.087 137.219 889.662 133.835 889.271 132.924C888.881 131.883 887.189 131.102 885.627 131.102C882.633 131.102 882.633 130.712 882.243 115.093C881.592 95.961 880.161 81.5141 878.989 84.2473Z" fill="white" fill-opacity="0.1"/>
<path d="M-0.837267 167.544C-1.35787 171.449 -1.74833 180.56 -1.74833 187.718C-1.74833 196.048 -2.26894 201.384 -3.31015 202.425C-4.35137 203.466 -4.48152 204.768 -3.31015 207.111C-2.00863 209.974 -2.26894 210.234 -5.78304 211.015C-7.99562 211.406 -9.55744 212.577 -9.55744 213.748C-9.55744 214.789 -10.078 215.701 -10.5987 215.701C-13.3318 215.701 -42.7462 234.963 -41.7049 236.004C-40.924 236.785 -25.436 229.497 -16.3253 224.291C-12.0303 221.688 -7.34486 219.605 -5.78304 219.605C-4.35137 219.605 -2.39909 218.434 -1.22772 216.872L0.594403 214.139L2.02607 216.872C2.93714 218.434 4.49896 219.605 5.80048 219.605C6.97184 219.605 15.5619 223.51 24.6725 228.195C33.9133 232.881 41.7224 236.525 41.9827 236.134C42.7636 235.353 28.577 225.202 19.7267 220.256C16.2126 218.173 11.9176 215.18 10.2256 213.488C8.53367 211.926 6.06078 210.494 4.75926 210.494C2.54668 210.494 2.41653 210.104 3.5879 208.022C4.49896 206.59 4.75926 204.638 4.1085 203.206C3.5879 201.774 2.80698 194.226 2.54668 186.416C2.28638 178.477 1.63562 169.367 1.11501 166.243L0.0737956 160.386L-0.837267 167.544Z" fill="white" fill-opacity="0.1"/>
<path d="M91.5703 168.716C91.0497 173.271 90.6593 182.252 90.6593 188.629C90.6593 195.006 90.0085 201.384 89.3577 202.816C88.4467 204.508 88.4467 206.069 89.2276 207.761C90.399 209.844 90.0085 210.234 86.7547 211.015C84.5421 211.406 82.8502 212.577 82.8502 213.618C82.8502 214.659 81.6788 215.961 80.2471 216.351C76.6029 217.523 49.9217 235.223 50.5725 236.004C51.4836 236.785 66.9716 229.757 76.4727 224.16C80.7677 221.688 85.4532 219.605 86.7547 219.605C88.0562 219.605 90.0085 218.434 91.1799 216.872L93.002 214.139L94.4337 216.872C95.3447 218.434 96.9066 219.605 98.2081 219.605C99.3794 219.605 107.969 223.51 117.08 228.195C126.321 232.881 134.13 236.525 134.52 236.134C135.301 235.223 117.861 222.859 110.182 218.954C106.928 217.262 103.284 214.659 102.113 213.228C100.811 211.666 98.8588 210.494 97.8176 210.494C96.3859 210.494 95.9955 209.583 96.6462 207.371C97.0367 205.549 97.0367 203.596 96.6462 202.816C96.2558 202.165 95.4749 194.356 95.0844 185.505C94.694 176.655 94.0432 167.414 93.3925 164.941C92.4814 160.646 92.3512 160.907 91.5703 168.716Z" fill="white" fill-opacity="0.1"/>
<path d="M647.319 167.545C645.757 178.998 644.065 206.851 644.716 208.673C644.976 209.454 643.805 210.495 641.983 211.015C640.161 211.406 638.599 212.447 638.599 213.098C638.599 213.749 634.955 216.352 630.529 219.085C619.727 225.332 605.67 235.354 606.581 236.135C606.842 236.525 614.651 232.881 623.892 228.195C633.002 223.51 641.592 219.605 642.764 219.605C644.065 219.605 645.627 218.434 646.538 216.872L647.97 214.139L649.792 216.872C650.963 218.434 652.915 219.605 654.217 219.605C655.519 219.605 660.204 221.688 664.499 224.161C673.479 229.367 689.488 236.786 690.269 236.135C690.92 235.484 669.445 220.777 663.328 217.653C660.855 216.352 657.991 214.269 657.08 212.968C656.169 211.536 654.217 210.495 652.785 210.495C650.573 210.495 650.443 210.104 651.614 207.892C652.525 206.07 652.655 204.508 651.614 202.816C650.963 201.384 650.312 194.226 650.182 186.807C650.182 179.389 649.662 170.408 649.141 166.894L648.23 160.386L647.319 167.545Z" fill="white" fill-opacity="0.1"/>
<path d="M739.596 168.195C739.076 172.49 738.425 181.601 738.295 188.369C738.034 195.137 737.384 201.774 736.863 203.206C736.212 204.638 736.473 206.72 737.384 208.022C738.555 210.104 738.425 210.494 736.212 210.494C734.911 210.494 732.438 211.926 730.746 213.488C729.054 215.18 724.889 218.173 721.245 220.256C712.395 225.202 698.208 235.353 698.989 236.134C699.249 236.525 707.058 232.881 716.299 228.195C725.41 223.51 734 219.605 735.171 219.605C736.473 219.605 738.034 218.434 738.946 216.872L740.377 214.139L742.199 216.872C743.371 218.434 745.323 219.605 746.755 219.605C748.316 219.605 753.002 221.688 757.297 224.291C766.928 229.887 781.896 236.785 782.807 236.004C783.457 235.223 756.776 217.523 753.132 216.351C751.7 215.961 750.529 214.659 750.529 213.618C750.529 212.577 748.837 211.406 746.755 211.015C743.241 210.234 742.98 209.974 744.282 207.111C745.453 204.768 745.323 203.466 744.282 202.425C743.241 201.384 742.72 195.657 742.59 186.416C742.59 178.607 742.069 169.497 741.549 166.243L740.638 160.386L739.596 168.195Z" fill="white" fill-opacity="0.1"/>
<path d="M832.134 167.544C831.614 171.449 831.223 180.56 831.223 187.718C831.223 196.048 830.703 201.384 829.661 202.425C828.62 203.466 828.49 204.768 829.661 207.111C830.963 209.974 830.703 210.234 827.188 211.015C825.106 211.406 823.414 212.447 823.414 213.358C823.414 214.269 820.29 216.742 816.386 218.694C808.316 222.859 790.486 235.223 791.267 236.004C792.047 236.785 807.405 229.627 816.646 224.291C820.941 221.688 825.627 219.605 827.188 219.605C828.62 219.605 830.572 218.434 831.744 216.872L833.566 214.139L834.998 216.872C835.909 218.434 837.47 219.605 838.772 219.605C839.943 219.605 848.533 223.51 857.644 228.195C866.885 232.881 874.694 236.525 874.954 236.134C875.735 235.353 861.418 225.202 852.698 220.256C849.184 218.173 844.889 215.18 843.197 213.488C841.505 211.926 839.032 210.494 837.731 210.494C835.388 210.494 835.258 210.104 836.69 207.891C837.861 206.069 837.991 204.638 836.95 202.946C836.299 201.774 835.518 193.965 835.258 185.766C835.128 177.566 834.477 168.455 833.956 165.592L833.045 160.386L832.134 167.544Z" fill="white" fill-opacity="0.1"/>
<path d="M924.542 168.716C924.022 173.271 923.631 182.382 923.631 188.889C923.631 196.308 923.111 201.384 922.069 202.425C921.028 203.466 920.898 204.768 922.069 207.111C923.371 209.974 923.111 210.234 919.596 211.015C917.514 211.406 915.822 212.577 915.822 213.618C915.822 214.659 914.651 215.961 913.219 216.351C909.575 217.523 882.894 235.223 883.544 236.004C884.325 236.785 901.636 228.846 910.356 223.64C914.13 221.427 918.295 219.605 919.727 219.605C921.028 219.605 922.98 218.434 924.152 216.872L925.974 214.139L927.406 216.872C928.317 218.434 929.878 219.605 931.18 219.605C932.351 219.605 940.941 223.51 950.052 228.195C959.293 232.881 967.102 236.525 967.362 236.134C968.143 235.353 953.957 225.202 945.106 220.256C941.592 218.173 937.297 215.18 935.605 213.488C933.913 211.926 931.831 210.494 930.659 210.494C929.358 210.494 928.967 209.583 929.618 207.371C930.009 205.549 930.009 203.466 929.488 202.816C929.098 202.035 928.447 194.226 928.056 185.375C927.666 176.655 927.015 167.414 926.364 164.941C925.453 160.646 925.323 160.907 924.542 168.716Z" fill="white" fill-opacity="0.1"/>
<path d="M183.978 170.147C183.458 174.573 183.067 183.293 183.067 189.28C183.067 195.267 182.417 201.384 181.766 202.816C180.725 204.507 180.855 206.069 181.766 207.891C182.937 210.104 182.807 210.494 180.594 210.494C179.163 210.494 177.21 211.536 176.299 212.837C175.388 214.139 171.744 216.872 168.1 218.824C159.119 224.03 142.59 235.484 143.241 236.134C143.892 236.915 164.325 227.284 170.963 223.119C174.087 221.167 177.601 219.605 179.033 219.605C180.464 219.605 182.417 218.434 183.458 217.002C185.15 214.529 185.15 214.529 187.362 217.002C188.534 218.434 190.356 219.605 191.397 219.605C192.438 219.605 199.857 223.119 208.056 227.284C216.126 231.449 224.195 235.353 226.017 235.874C230.182 237.045 218.599 228.455 205.063 220.386C199.466 217.002 194.781 213.488 194.26 212.447C193.87 211.406 192.438 210.494 191.007 210.494C189.184 210.494 188.534 209.714 188.794 206.85C189.054 200.212 186.842 167.414 185.8 164.551C185.02 162.599 184.499 164.03 183.978 170.147Z" fill="white" fill-opacity="0.1"/>
<path d="M276.256 175.484C275.735 182.902 275.345 193.835 275.084 199.692C274.824 208.802 274.434 210.494 272.611 210.494C271.44 210.494 269.618 211.536 268.707 212.837C267.796 214.139 264.152 216.872 260.507 218.824C251.267 224.16 234.998 235.484 235.648 236.134C236.429 236.915 254.911 228.325 262.72 223.51C266.104 221.427 270.139 219.605 271.57 219.605C272.872 219.605 274.824 218.434 275.865 217.002L277.687 214.399L280.03 217.002C281.332 218.434 283.024 219.605 283.805 219.605C284.585 219.605 292.915 223.51 302.416 228.325C311.917 233.141 319.987 236.785 320.377 236.395C320.768 236.004 314.13 231.189 305.67 225.722C297.34 220.256 289.271 214.529 287.839 213.097C286.277 211.666 284.065 210.494 282.763 210.494C281.462 210.494 280.681 209.844 281.071 208.802C281.982 206.46 279.379 165.983 278.078 163.77C277.427 162.599 276.776 167.414 276.256 175.484Z" fill="white" fill-opacity="0.1"/>
<path d="M462.503 164.941C461.332 169.106 459.119 206.72 459.9 208.802C460.291 209.844 459.51 210.494 458.208 210.494C456.907 210.494 454.694 211.666 453.132 213.097C451.701 214.529 443.631 220.256 435.301 225.722C426.842 231.189 420.204 236.004 420.594 236.395C420.985 236.785 429.054 233.141 438.555 228.325C448.056 223.51 456.386 219.605 457.167 219.605C457.948 219.605 459.64 218.434 460.941 217.002L463.284 214.399L465.106 217.002C466.147 218.434 468.1 219.605 469.401 219.605C470.833 219.605 474.868 221.427 478.252 223.51C486.061 228.325 504.542 236.915 505.323 236.134C505.974 235.614 482.937 219.865 477.21 217.002C475.388 216.091 473.176 214.269 472.265 212.837C471.353 211.536 469.531 210.494 468.36 210.494C466.408 210.494 466.147 208.412 465.627 194.486C465.106 173.271 463.675 160.646 462.503 164.941Z" fill="white" fill-opacity="0.1"/>
<path d="M554.911 166.243C553.609 172.621 551.527 206.851 552.308 208.803C552.698 209.844 551.918 210.495 550.226 210.495C548.664 210.495 547.102 211.406 546.711 212.447C546.191 213.488 541.505 217.002 535.909 220.386C522.373 228.456 510.79 237.046 514.954 235.874C516.777 235.354 524.846 231.449 532.915 227.284C541.115 223.12 548.534 219.605 549.575 219.605C550.616 219.605 552.438 218.434 553.609 217.002C555.822 214.53 555.822 214.53 557.514 217.002C558.555 218.434 560.508 219.605 561.809 219.605C563.241 219.605 567.275 221.428 570.659 223.51C578.468 228.326 596.95 236.916 597.731 236.135C598.382 235.484 582.113 224.161 572.872 218.825C569.358 216.872 565.583 214.139 564.672 212.838C563.761 211.536 561.809 210.495 560.508 210.495C558.425 210.495 558.165 209.974 559.076 207.501C559.857 205.679 559.857 203.597 559.076 202.556C558.425 201.514 557.904 195.137 557.774 188.369C557.774 181.601 557.254 172.751 556.733 168.846C555.822 161.818 555.822 161.818 554.911 166.243Z" fill="white" fill-opacity="0.1"/>
<path d="M368.663 176.265C368.143 183.293 367.752 193.835 367.492 199.692C367.232 208.803 366.841 210.495 365.019 210.495C363.848 210.495 362.026 211.536 361.115 212.837C360.204 214.269 357.991 216.091 356.169 217.002C349.922 220.256 327.405 235.614 328.056 236.135C328.837 236.916 352.525 225.723 357.34 222.339C359.423 220.777 362.156 219.605 363.457 219.605C364.629 219.605 366.841 218.694 368.143 217.393C370.355 215.441 370.616 215.441 372.828 217.393C374.13 218.694 376.342 219.605 377.514 219.605C378.815 219.605 381.418 220.777 383.501 222.208C388.577 225.853 412.004 237.046 412.785 236.265C413.436 235.614 397.557 224.551 386.755 218.304C383.891 216.612 380.768 214.139 379.856 212.837C378.945 211.536 377.123 210.495 375.952 210.495C374.13 210.495 373.739 208.803 373.479 199.692C372.958 180.43 371.527 163.64 370.486 163.64C369.965 163.64 369.054 169.367 368.663 176.265Z" fill="white" fill-opacity="0.1"/>
<path d="M138.425 245.636C137.124 252.404 135.041 287.285 135.822 289.367C136.213 290.538 135.562 291.189 133.87 291.189C132.308 291.189 130.356 292.23 129.445 293.662C128.534 294.963 125.67 297.046 123.197 298.347C117.601 301.211 95.8655 315.788 95.8655 316.569C95.8655 317.61 104.716 313.705 117.991 306.677C124.759 303.033 131.527 299.909 132.829 299.519C134.26 299.258 136.213 298.217 137.254 297.176C138.816 295.614 139.466 295.744 141.549 297.827C142.98 299.258 144.672 300.039 145.323 299.649C145.974 299.258 149.358 300.69 152.872 302.903C160.681 307.718 181.766 317.61 182.547 316.959C182.807 316.569 176.169 311.883 167.709 306.547C159.38 301.081 151.31 295.354 149.748 293.922C148.187 292.36 145.714 291.189 144.152 291.189C141.028 291.189 140.898 290.799 142.85 287.024C143.892 285.202 143.892 284.031 142.85 282.99C142.069 282.209 141.419 275.961 141.288 268.413C141.158 261.254 140.768 252.144 140.247 248.239C139.336 241.341 139.336 241.211 138.425 245.636Z" fill="white" fill-opacity="0.1"/>
<path d="M231.354 241.731C230.052 244.725 227.84 287.154 228.881 288.846C229.792 290.798 229.402 291.189 226.668 291.189C224.846 291.189 223.024 292.1 222.504 293.141C222.113 294.313 219.38 296.395 216.386 297.957C209.488 301.471 188.013 316.048 188.794 316.829C189.315 317.48 213.523 305.636 220.291 301.471C222.504 300.169 224.716 299.388 225.237 299.909C225.627 300.299 227.319 299.519 229.011 297.957L232.005 295.093L234.217 297.827C235.519 299.258 237.081 300.039 237.731 299.649C238.252 299.258 242.417 301.08 246.842 303.683C254.521 308.109 273.393 317.219 275.215 317.219C276.647 317.219 260.768 306.156 251.137 300.299C245.931 297.306 241.506 293.922 241.115 293.011C240.725 291.97 238.903 291.189 237.211 291.189C234.087 291.189 233.957 290.929 235.389 287.935C236.56 285.462 236.56 284.291 235.389 283.119C234.347 282.078 233.827 276.482 233.697 267.762C233.566 256.048 232.135 239.649 231.354 241.731Z" fill="white" fill-opacity="0.1"/>
<path d="M323.111 248.239C322.59 252.143 321.94 261.254 321.809 268.412C321.549 275.57 320.898 282.468 320.508 283.64C319.987 284.811 320.117 287.024 321.029 288.455C322.33 290.928 322.07 291.189 319.076 291.189C317.254 291.189 315.432 292.1 315.042 293.141C314.651 294.182 311.007 296.785 306.972 299.128C297.861 304.204 280.421 316.048 281.072 316.829C281.853 317.479 299.814 309.019 308.013 304.204C311.918 301.861 316.083 299.909 317.124 299.909C318.165 299.909 320.248 298.868 321.679 297.566C324.282 295.223 324.412 295.223 326.625 297.826C327.927 299.258 329.488 300.039 330.139 299.649C330.92 299.128 334.955 300.95 339.12 303.423C347.71 308.759 366.582 317.609 367.493 316.829C368.013 316.178 344.456 300.299 338.469 297.176C336.256 296.134 334.044 294.312 333.653 293.141C333.133 292.1 331.311 291.189 329.619 291.189C326.495 291.189 326.365 290.928 327.796 287.935C328.968 285.462 328.968 284.291 327.796 283.119C326.755 282.078 326.235 276.351 326.104 267.111C326.104 259.301 325.584 250.191 325.063 246.937L324.152 241.08L323.111 248.239Z" fill="white" fill-opacity="0.1"/>
<path d="M415.649 248.239C415.128 252.143 414.738 261.254 414.738 268.412C414.738 276.742 414.217 282.078 413.176 283.119C412.004 284.291 412.004 285.462 413.176 287.935C414.607 290.928 414.477 291.189 411.354 291.189C409.662 291.189 407.84 292.1 407.319 293.141C406.928 294.312 404.716 296.134 402.503 297.176C396.516 300.299 372.959 316.178 373.479 316.829C374.391 317.609 393.263 308.759 401.853 303.423C406.017 300.95 410.052 299.128 410.703 299.518C411.223 299.909 412.785 299.128 414.087 297.696C416.43 295.093 416.56 295.093 419.163 297.566C420.725 298.868 422.807 299.909 423.848 299.909C424.889 299.909 429.054 301.861 432.959 304.204C441.158 309.019 459.119 317.479 459.9 316.829C460.551 316.048 443.111 304.204 434 299.128C429.965 296.785 426.321 294.182 425.931 293.141C425.54 292.1 423.718 291.189 422.026 291.189C418.902 291.189 418.772 290.928 420.204 287.935C421.115 285.852 421.245 284.16 420.334 283.119C419.683 282.208 419.033 274.659 418.772 266.46C418.642 258.26 417.991 249.15 417.471 246.286L416.56 241.08L415.649 248.239Z" fill="white" fill-opacity="0.1"/>
<path d="M508.056 249.41C507.536 253.965 507.145 263.076 507.145 269.584C507.145 277.002 506.625 282.078 505.584 283.119C504.412 284.291 504.412 285.462 505.584 287.935C507.015 290.929 506.885 291.189 503.761 291.189C502.069 291.189 500.247 291.97 499.857 293.011C499.466 293.922 495.041 297.306 489.835 300.299C480.204 306.156 464.325 317.219 465.757 317.219C467.709 317.219 487.102 307.848 494.26 303.423C498.425 300.95 502.46 299.128 503.241 299.649C503.892 300.039 505.453 299.258 506.755 297.827L508.967 295.093L511.961 297.957C513.653 299.519 515.345 300.299 515.735 299.909C516.256 299.388 518.599 300.169 520.941 301.601C527.839 305.896 551.657 317.48 552.178 316.829C552.959 316.048 531.614 301.471 524.586 297.957C521.592 296.395 518.859 294.313 518.469 293.141C517.948 292.1 516.126 291.189 514.304 291.189C511.31 291.189 511.18 290.929 512.351 288.586C513.132 287.024 513.523 284.811 513.132 283.64C512.612 282.339 512.091 274.269 511.701 265.809C511.31 257.219 510.529 248.109 509.879 245.636C508.967 241.341 508.837 241.601 508.056 249.41Z" fill="white" fill-opacity="0.1"/>
<path d="M600.464 250.191C599.944 255.137 599.553 264.248 599.553 270.365C599.553 276.742 598.903 282.209 598.122 282.99C597.08 284.031 597.08 285.202 598.122 287.024C600.074 290.799 599.944 291.189 596.82 291.189C595.258 291.189 592.785 292.36 591.224 293.922C589.662 295.354 581.592 301.081 573.263 306.547C564.803 311.883 558.165 316.569 558.425 316.959C559.206 317.61 580.291 307.718 588.1 302.903C591.614 300.69 594.998 299.258 595.649 299.649C596.3 300.039 597.992 299.258 599.423 297.827C601.896 295.354 602.026 295.354 604.239 297.827C605.54 299.258 607.102 300.17 607.883 299.909C608.664 299.649 615.172 302.512 622.33 306.287C636.126 313.575 645.106 317.61 645.106 316.569C645.106 315.788 623.371 301.211 617.775 298.347C615.302 297.046 612.438 294.963 611.527 293.662C610.616 292.23 608.664 291.189 607.102 291.189C605.41 291.189 604.759 290.538 605.15 289.367C606.061 287.154 603.588 250.321 602.287 244.985C601.506 241.731 601.115 242.512 600.464 250.191Z" fill="white" fill-opacity="0.1"/>
<path d="M46.0173 245.636C44.7158 250.061 42.6333 287.284 43.4143 289.367C43.8047 290.408 43.154 291.189 41.9826 291.189C40.8112 291.189 37.2971 293.141 34.1735 295.354C31.0498 297.696 24.4121 302.122 19.4663 305.245C14.5206 308.369 8.79387 312.273 6.71144 313.965L2.80688 317.219L6.19083 316.048C11.3969 314.226 30.9197 304.204 34.9544 301.341C37.0368 299.909 39.1192 299.128 39.9002 299.649C40.5509 300.039 42.2429 299.258 43.8047 297.696L46.4078 295.093L49.0108 297.696C50.5726 299.258 52.2646 300.039 52.9153 299.649C53.5661 299.258 56.2993 300.299 59.0325 301.991C65.1496 305.896 77.7743 312.273 84.8025 315.137L90.0086 317.219L85.4533 313.445C82.9804 311.232 75.5618 306.286 68.924 302.122C62.2863 298.087 56.6897 293.922 56.2993 293.011C55.9088 291.97 54.2169 291.189 52.655 291.189C49.6615 291.189 49.6615 290.929 49.2711 274.529C48.6203 253.705 47.1887 240.95 46.0173 245.636Z" fill="white" fill-opacity="0.1"/>
<path d="M692.742 254.226C692.351 260.603 691.831 271.536 691.571 278.434C691.31 290.798 691.18 291.189 688.317 291.189C686.755 291.189 685.063 291.97 684.672 293.011C684.282 293.922 678.685 298.087 672.048 302.122C665.41 306.286 657.991 311.232 655.518 313.445L650.963 317.219L656.169 315.137C663.197 312.273 675.822 305.896 681.939 301.991C684.672 300.299 687.406 299.258 688.056 299.649C688.707 300.039 690.399 299.258 691.961 297.696L694.564 295.093L697.167 297.696C698.729 299.258 700.421 300.039 701.072 299.649C701.853 299.128 703.935 299.909 706.017 301.341C712.135 305.766 737.514 318 737.514 316.699C737.514 315.788 721.375 304.595 713.957 300.43C709.922 298.217 705.627 295.224 704.325 293.792C703.024 292.36 700.811 291.189 699.38 291.189C697.818 291.189 697.167 290.538 697.557 289.497C698.469 287.024 695.866 246.677 694.564 244.464C694.043 243.423 693.262 247.458 692.742 254.226Z" fill="white" fill-opacity="0.1"/>
<path d="M878.989 244.334C877.818 246.937 875.475 287.284 876.386 289.497C876.777 290.538 876.126 291.189 874.434 291.189C873.002 291.189 871.18 292.1 870.269 293.141C869.488 294.182 863.111 298.477 856.213 302.772C849.184 307.067 841.896 312.013 839.683 313.965C835.779 317.219 835.779 317.219 839.163 316.048C844.369 314.226 863.892 304.204 867.926 301.341C870.009 299.909 872.091 299.128 872.872 299.649C873.523 300.039 875.215 299.258 876.777 297.696L879.38 295.093L881.983 297.696C883.544 299.258 885.236 300.039 885.887 299.649C886.538 299.258 889.271 300.299 892.004 301.991C898.121 305.896 910.746 312.273 917.774 315.137L922.98 317.219L918.425 313.445C915.952 311.232 908.534 306.286 901.896 302.122C895.258 298.087 889.662 293.922 889.271 293.011C888.881 291.97 887.189 291.189 885.627 291.189C882.633 291.189 882.633 290.798 882.243 275.18C881.592 256.048 880.16 241.601 878.989 244.334Z" fill="white" fill-opacity="0.1"/>
<path d="M785.15 256.308C784.629 262.946 784.108 273.488 783.978 279.735C783.718 290.538 783.588 291.189 780.985 291.189C779.423 291.189 777.861 291.969 777.471 293.011C777.08 294.052 773.046 297.045 768.49 299.648C759.77 304.724 744.022 315.657 744.022 316.568C744.022 318 769.271 305.896 775.518 301.34C777.601 299.909 779.683 299.128 780.464 299.648C781.115 300.039 782.807 299.258 784.369 297.696L786.972 295.093L789.575 297.696C791.137 299.258 792.829 300.039 793.479 299.648C794.26 299.128 796.343 299.909 798.425 301.34C804.672 305.896 829.922 318 829.922 316.568C829.922 315.657 814.174 304.724 805.453 299.648C800.898 297.045 796.863 294.052 796.473 293.011C796.082 291.969 794.521 291.189 792.959 291.189C790.486 291.189 790.226 290.408 789.965 281.037C789.445 261.904 788.013 244.334 786.972 244.334C786.451 244.334 785.54 249.8 785.15 256.308Z" fill="white" fill-opacity="0.1"/>
<path d="M-0.837036 327.631C-1.35764 331.536 -1.7481 340.646 -1.7481 347.805C-1.7481 356.134 -2.26871 361.471 -3.30992 362.512C-4.48129 363.683 -4.48129 364.854 -3.30992 367.327C-2.0084 370.061 -2.13855 370.581 -3.96068 370.581C-5.2622 370.581 -7.34463 371.753 -8.90645 373.184C-10.3381 374.616 -16.8457 379.171 -23.4835 383.336C-29.9911 387.371 -37.2796 392.317 -39.7524 394.269C-43.9173 397.783 -43.7871 397.783 -33.6353 393.358C-27.9086 390.755 -19.8392 386.72 -15.6743 384.247C-11.5095 381.774 -6.95417 379.692 -5.65265 379.692C-4.35114 379.692 -2.39886 378.52 -1.4878 377.219C0.33433 374.616 0.33433 374.616 1.89615 377.219C2.80722 378.52 4.62934 379.692 6.06101 379.692C7.36253 379.692 12.048 381.774 16.4732 384.377C27.4059 390.755 44.586 398.434 42.6337 396.091C40.6814 393.878 18.5556 379.301 13.4797 376.959C11.5274 376.048 9.96557 374.616 9.96557 373.705C9.96557 372.664 8.5339 371.622 6.71177 371.102C4.10873 370.451 3.58813 369.67 4.23889 367.327C4.62934 365.635 4.49919 363.423 3.97858 362.512C3.32782 361.601 2.67706 354.312 2.54691 346.503C2.28661 338.564 1.63585 329.453 1.11524 326.33L0.0740265 320.473L-0.837036 327.631Z" fill="white" fill-opacity="0.1"/>
<path d="M739.597 328.282C739.076 332.577 738.555 341.687 738.295 348.585C738.035 355.484 737.514 361.861 736.864 362.642C736.343 363.553 736.343 365.635 736.733 367.327C737.384 369.67 736.864 370.451 734.26 371.102C732.438 371.622 731.007 372.794 731.007 373.835C731.007 374.746 729.835 376.048 728.404 376.438C724.629 377.609 698.078 395.31 698.859 396.091C699.77 397.002 714.477 390.234 724.369 384.377C728.794 381.774 733.61 379.692 734.911 379.692C736.213 379.692 738.165 378.52 739.076 377.219C740.898 374.616 740.898 374.616 742.46 377.219C743.371 378.52 745.193 379.692 746.495 379.692C747.926 379.692 752.482 381.774 756.647 384.247C760.811 386.72 768.881 390.755 774.608 393.358C784.759 397.783 784.89 397.783 780.725 394.269C778.252 392.317 770.963 387.371 764.456 383.336C757.818 379.171 751.31 374.616 749.879 373.184C748.317 371.753 746.104 370.581 744.933 370.581C742.981 370.581 742.85 370.061 744.022 367.978C744.933 366.156 745.063 364.594 744.022 362.902C743.371 361.471 742.72 354.052 742.59 346.243C742.59 338.564 742.07 329.583 741.549 326.33L740.638 320.473L739.597 328.282Z" fill="white" fill-opacity="0.1"/>
<path d="M832.135 327.631C831.614 331.536 831.224 340.516 831.224 347.544C831.224 355.353 830.573 361.21 829.662 362.772C828.36 364.724 828.36 365.896 829.532 367.848C830.833 369.93 830.573 370.321 827.189 371.102C825.106 371.492 823.414 372.664 823.414 373.575C823.414 374.616 821.853 376.047 819.9 376.959C815.215 379.041 791.267 394.919 790.226 396.611C789.184 398.434 808.057 389.713 817.297 384.247C821.462 381.774 826.017 379.692 827.319 379.692C828.62 379.692 830.573 378.52 831.484 377.219C833.306 374.616 833.306 374.616 834.868 377.219C835.779 378.52 837.601 379.692 838.902 379.692C840.334 379.692 844.889 381.774 849.054 384.247C858.295 389.713 877.167 398.434 876.126 396.611C875.085 394.919 851.137 379.041 846.581 376.959C844.499 376.047 842.937 374.616 842.937 373.575C842.937 372.664 841.245 371.492 839.163 371.102C835.779 370.321 835.519 369.93 836.82 367.848C837.861 366.026 837.991 364.724 836.95 363.032C836.299 361.861 835.519 354.052 835.258 345.852C835.128 337.653 834.477 328.542 833.957 325.679L833.046 320.473L832.135 327.631Z" fill="white" fill-opacity="0.1"/>
<path d="M91.5705 328.933C91.0499 332.837 90.6595 341.557 90.6595 348.195C90.6595 354.833 90.0087 361.471 89.3579 362.902C88.3167 364.594 88.4469 366.156 89.3579 367.978C90.5293 370.061 90.3992 370.581 88.4469 370.581C87.2755 370.581 85.0629 371.753 83.5011 373.184C82.0694 374.616 75.5618 379.171 68.9241 383.336C62.4165 387.371 55.128 392.317 52.6551 394.269L48.3601 397.913L53.5662 395.831C60.4642 392.967 73.089 386.59 79.2061 382.815C81.9393 381.123 85.1931 379.692 86.6248 379.692C88.0564 379.692 90.0087 378.52 91.1801 376.959L93.0022 374.225L94.4339 376.959C95.3449 378.52 97.1671 379.692 98.7289 379.692C100.161 379.692 104.716 381.774 108.751 384.247C117.471 389.453 133.74 397.002 134.651 396.091C134.911 395.701 128.794 391.405 121.115 386.33C113.306 381.384 105.236 375.787 103.154 373.965C101.072 372.143 98.5987 370.581 97.5575 370.581C96.3861 370.581 95.9957 369.67 96.6464 367.458C97.0369 365.635 97.0369 363.683 96.6464 362.902C96.256 362.251 95.4751 354.442 95.2148 345.592C94.8243 336.742 94.0434 327.761 93.3926 325.679C92.4816 322.165 92.3514 322.425 91.5705 328.933Z" fill="white" fill-opacity="0.1"/>
<path d="M183.978 331.015C183.458 335.961 183.067 344.941 183.067 351.059C183.067 357.436 182.417 362.902 181.636 363.683C180.594 364.724 180.594 365.896 181.636 367.848C182.937 370.191 182.807 370.581 180.594 370.581C179.163 370.581 177.21 371.623 176.299 372.924C175.388 374.226 170.833 377.609 166.148 380.343C157.297 385.549 141.419 396.482 141.419 397.262C141.419 398.564 167.059 386.2 172.915 382.165C174.738 380.733 177.471 379.692 178.902 379.692C180.464 379.692 182.417 378.521 183.588 376.959L185.41 374.226L186.842 376.959C187.753 378.521 189.575 379.692 191.007 379.692C192.438 379.692 197.254 381.774 201.549 384.377C210.92 389.714 226.148 396.872 226.928 396.091C227.709 395.44 212.872 385.028 204.542 380.343C201.028 378.26 196.733 375.267 195.041 373.575C193.349 372.013 191.267 370.581 190.356 370.581C189.184 370.581 188.664 369.28 188.794 366.937C189.054 360.299 186.842 327.501 185.8 324.638C185.02 322.685 184.499 324.508 183.978 331.015Z" fill="white" fill-opacity="0.1"/>
<path d="M276.256 335.57C275.865 342.989 275.345 353.922 275.085 359.779C274.954 366.937 274.304 370.581 273.262 370.581C272.482 370.581 270.399 371.753 268.707 373.184C267.145 374.616 258.555 380.473 249.835 386.199C240.985 391.926 233.826 397.002 233.826 397.262C233.826 398.173 247.753 391.796 259.466 385.419C265.453 382.295 270.92 379.692 271.831 379.692C272.612 379.692 274.434 378.651 275.865 377.479C278.208 375.267 278.338 375.267 279.51 377.479C280.291 378.651 281.852 379.692 283.024 379.692C284.195 379.692 292.785 383.596 301.896 388.282C311.137 392.967 318.946 396.612 319.206 396.221C319.987 395.44 305.8 385.288 296.95 380.343C293.436 378.26 289.141 375.267 287.449 373.575C285.757 372.013 283.544 370.581 282.503 370.581C281.332 370.581 280.681 369.8 281.072 368.889C281.983 366.546 279.38 326.069 278.078 323.857C277.427 322.685 276.777 327.501 276.256 335.57Z" fill="white" fill-opacity="0.1"/>
<path d="M554.911 326.329C553.61 332.707 551.527 366.937 552.308 368.889C552.699 369.8 552.048 370.581 550.877 370.581C549.835 370.581 547.623 372.012 545.931 373.574C544.239 375.266 540.074 378.26 536.43 380.342C528.1 385.028 513.263 395.44 514.044 396.091C514.824 396.871 530.052 389.713 539.423 384.377C543.718 381.774 548.534 379.691 549.965 379.691C551.397 379.691 553.219 378.52 554.13 376.958L555.562 374.225L557.384 376.958C558.555 378.52 560.247 379.691 561.289 379.691C562.33 379.691 567.926 382.294 573.913 385.418C585.237 391.665 599.553 398.173 599.553 397.392C599.553 396.481 584.326 386.069 574.824 380.342C570.139 377.609 565.584 374.225 564.673 372.924C563.762 371.622 561.809 370.581 560.378 370.581C558.165 370.581 558.035 370.19 559.336 367.848C560.378 365.895 560.378 364.724 559.336 363.683C558.555 362.902 557.905 356.655 557.775 349.106C557.644 341.947 557.254 332.837 556.733 328.932C555.822 321.904 555.822 321.904 554.911 326.329Z" fill="white" fill-opacity="0.1"/>
<path d="M647.319 326.46C646.798 329.063 646.017 338.044 645.757 346.504C645.366 354.833 644.716 362.252 644.325 363.033C643.935 363.684 643.935 365.636 644.325 367.458C644.976 369.671 644.586 370.582 643.284 370.582C642.113 370.582 640.03 371.883 638.338 373.575C636.646 375.267 631.57 378.912 626.885 381.645C616.343 388.022 605.8 395.441 606.451 396.092C607.232 397.003 623.891 389.194 632.221 384.248C636.256 381.775 640.811 379.692 642.243 379.692C643.805 379.692 645.627 378.521 646.538 376.959L647.969 374.226L649.792 376.959C650.963 378.521 652.915 379.692 654.347 379.692C655.779 379.692 659.032 381.124 661.766 382.816C670.356 388.152 691.961 398.565 691.961 397.263C691.961 396.482 672.308 382.946 665.28 378.912C661.766 376.959 657.991 374.226 657.08 372.925C656.169 371.623 654.217 370.582 652.785 370.582C650.572 370.582 650.442 370.191 651.614 367.979C652.525 366.157 652.655 364.595 651.614 362.903C650.963 361.471 650.312 354.573 650.182 347.545C650.182 340.517 649.661 331.797 649.141 328.283L648.23 321.775L647.319 326.46Z" fill="white" fill-opacity="0.1"/>
<path d="M924.542 328.933C924.021 332.837 923.631 341.557 923.631 348.195C923.631 354.833 922.98 361.471 922.329 362.902C921.288 364.594 921.418 366.156 922.329 367.978C923.501 370.061 923.371 370.581 921.418 370.581C920.247 370.581 918.034 371.753 916.472 373.184C915.041 374.616 908.533 379.171 901.895 383.336C895.388 387.371 888.099 392.317 885.626 394.269C881.462 397.783 881.592 397.783 891.744 393.358C897.47 390.755 905.54 386.72 909.705 384.247C913.869 381.774 918.425 379.692 919.726 379.692C921.028 379.692 922.98 378.52 924.151 376.959L925.974 374.225L927.405 376.959C928.316 378.52 930.008 379.692 931.44 379.692C932.741 379.692 937.427 381.774 941.722 384.247C951.223 389.844 966.711 396.872 967.622 396.091C967.882 395.7 961.765 391.405 954.086 386.33C946.277 381.384 938.208 375.787 936.125 373.965C934.043 372.143 931.57 370.581 930.529 370.581C929.357 370.581 928.967 369.67 929.618 367.457C930.008 365.635 930.008 363.553 929.488 362.772C928.967 361.991 928.316 354.182 928.056 345.462C927.666 336.612 927.015 327.761 926.364 325.679C925.453 322.165 925.323 322.425 924.542 328.933Z" fill="white" fill-opacity="0.1"/>
<path d="M368.664 337.653C368.143 345.462 367.623 355.744 367.493 360.82C367.232 369.41 366.972 370.061 363.718 371.492C361.636 372.403 360.074 373.705 360.074 374.356C360.074 375.137 357.601 376.959 354.607 378.52C348.751 381.514 326.234 396.481 326.234 397.393C326.234 398.304 335.475 394.139 349.532 386.85C356.95 382.946 363.718 379.692 364.369 379.692C365.15 379.692 366.842 378.781 368.143 377.479C370.356 375.527 370.616 375.527 372.829 377.479C374.13 378.781 375.822 379.692 376.603 379.692C377.254 379.692 384.022 382.946 391.44 386.85C405.497 394.139 414.738 398.304 414.738 397.393C414.738 396.481 392.221 381.514 386.495 378.52C383.371 376.959 380.898 375.137 380.898 374.356C380.898 373.705 379.336 372.403 377.384 371.492C374 370.061 373.74 369.41 373.479 360.82C372.829 340.386 371.527 323.727 370.486 323.727C369.965 323.727 369.054 329.974 368.664 337.653Z" fill="white" fill-opacity="0.1"/>
<path d="M462.503 325.028C461.462 327.631 459.12 366.807 459.9 368.889C460.291 369.801 459.64 370.581 458.469 370.581C457.167 370.581 454.955 372.013 453.393 373.705C451.831 375.397 448.187 377.87 445.323 379.432C437.644 383.336 419.033 396.612 421.245 396.612C422.287 396.612 430.486 392.707 439.467 388.152C448.317 383.467 456.647 379.692 457.948 379.692C459.12 379.692 460.681 378.651 461.462 377.48C462.634 375.267 462.764 375.267 465.107 377.48C466.538 378.651 468.36 379.692 469.141 379.692C469.922 379.692 476.56 382.946 483.979 386.85C497.644 394.009 507.146 398.434 507.146 397.393C507.146 396.612 485.02 381.775 480.464 379.302C478.382 378.26 474.868 375.788 472.916 373.965C470.963 372.143 468.621 370.581 467.71 370.581C466.668 370.581 466.018 365.896 465.757 354.573C465.107 335.961 463.675 322.295 462.503 325.028Z" fill="white" fill-opacity="0.1"/>
<path d="M138.425 407.024C136.994 415.484 135.041 447.631 135.822 449.583C136.213 450.625 135.432 451.275 133.87 451.275C132.308 451.275 130.356 452.317 129.445 453.618C128.534 454.92 124.889 457.653 121.245 459.605C112.265 464.811 95.7355 476.264 96.3862 476.915C97.037 477.696 117.601 467.935 124.499 463.64C127.753 461.557 131.267 459.995 132.568 459.995C133.74 460.126 135.692 459.084 136.994 457.653C139.206 455.18 139.206 455.18 141.028 457.783C142.07 459.345 144.022 460.386 145.193 460.126C146.365 459.865 148.837 460.646 150.66 461.818C157.818 466.503 181.766 477.956 181.766 476.655C181.766 475.744 166.017 464.811 157.558 459.865C153.132 457.392 149.228 454.399 148.707 453.228C148.317 452.186 146.495 451.275 144.803 451.275C141.809 451.275 141.679 450.885 142.59 448.282C143.371 446.46 143.371 444.377 142.59 443.336C141.939 442.295 141.419 435.657 141.289 428.499C141.289 421.34 140.768 412.23 140.247 408.325L139.336 401.167L138.425 407.024Z" fill="white" fill-opacity="0.1"/>
<path d="M230.833 408.325C228.62 424.854 227.579 448.021 228.881 449.583C229.922 450.885 229.401 451.275 226.798 451.275C224.846 451.275 223.024 452.186 222.503 453.228C222.113 454.399 219.9 456.221 217.688 457.262C211.701 460.386 188.143 476.264 188.664 476.915C189.445 477.696 210.009 468.065 216.907 463.64C220.161 461.557 223.675 459.995 224.976 459.995C226.148 460.126 228.1 459.084 229.401 457.653C231.484 455.44 231.744 455.44 233.176 457.392C234.087 458.564 235.909 459.605 237.341 459.735C238.772 459.735 242.416 461.427 245.67 463.249C257.384 470.017 274.174 477.956 274.174 476.655C274.174 475.744 258.425 464.811 249.965 459.865C245.54 457.392 241.636 454.399 241.115 453.228C240.725 452.186 238.902 451.275 237.21 451.275C234.087 451.275 233.957 451.015 235.388 448.021C236.56 445.549 236.56 444.377 235.388 443.206C234.347 442.165 233.826 436.568 233.696 427.848C233.696 420.299 233.176 411.188 232.655 407.674L231.744 401.167L230.833 408.325Z" fill="white" fill-opacity="0.1"/>
<path d="M323.111 409.627C322.59 414.312 321.939 423.293 321.809 429.8C321.549 436.178 321.028 442.555 320.508 443.726C319.987 444.898 320.117 447.11 321.028 448.542C322.33 451.015 322.069 451.275 319.076 451.275C317.254 451.275 315.432 452.056 315.041 453.097C314.651 454.008 310.226 457.392 305.02 460.386C294.998 466.373 279.51 477.306 281.072 477.306C282.764 477.306 299.163 469.497 308.013 464.681C312.699 462.078 317.514 459.735 318.946 459.735C320.247 459.605 321.939 458.434 322.72 457.132C324.022 454.789 324.022 454.789 325.714 457.132C326.755 458.434 328.577 459.605 329.748 459.735C331.05 459.735 335.866 462.078 340.551 464.681C350.833 470.408 366.712 477.696 367.362 476.915C367.623 476.655 360.985 471.969 352.525 466.633C344.195 461.167 336.126 455.44 334.564 454.008C333.002 452.447 330.529 451.275 329.098 451.275C326.625 451.275 326.495 450.885 327.796 448.021C328.967 445.549 328.967 444.377 327.796 443.206C326.755 442.165 326.234 436.438 326.104 427.197C326.104 419.388 325.584 410.277 325.063 407.024L324.152 401.167L323.111 409.627Z" fill="white" fill-opacity="0.1"/>
<path d="M415.649 408.326C415.128 412.23 414.738 421.341 414.738 428.499C414.738 436.829 414.217 442.165 413.176 443.206C412.005 444.378 412.005 445.549 413.176 448.022C414.478 450.885 414.347 451.276 411.875 451.276C410.443 451.276 407.97 452.447 406.408 454.009C404.846 455.441 396.777 461.167 388.447 466.634C379.987 471.97 373.35 476.656 373.61 476.916C374.261 477.697 390.139 470.408 400.421 464.682C405.107 462.079 409.922 459.736 411.354 459.736C412.655 459.606 414.347 458.434 415.128 457.133C416.43 454.79 416.43 454.79 418.122 457.133C419.163 458.434 420.985 459.606 422.157 459.736C423.458 459.736 428.274 462.079 432.959 464.682C443.241 470.408 459.12 477.697 459.77 476.916C460.031 476.656 453.393 471.97 444.933 466.634C436.603 461.167 428.534 455.441 426.972 454.009C425.41 452.447 422.937 451.276 421.506 451.276C419.033 451.276 418.903 450.885 420.204 448.022C421.115 445.94 421.246 444.248 420.334 443.206C419.684 442.295 419.033 434.747 418.773 426.547C418.642 418.347 417.992 409.237 417.471 406.374L416.56 401.167L415.649 408.326Z" fill="white" fill-opacity="0.1"/>
<path d="M508.056 409.497C507.536 414.052 507.145 423.162 507.145 429.67C507.145 437.089 506.625 442.165 505.583 443.206C504.412 444.377 504.412 445.549 505.583 448.021C507.015 451.015 506.885 451.275 503.761 451.275C502.069 451.275 500.247 452.056 499.857 453.097C499.466 454.008 493.87 458.173 487.232 462.208C480.594 466.373 473.176 471.319 470.703 473.531C466.538 477.045 466.408 477.176 469.662 476.134C473.957 474.572 487.753 467.674 495.301 463.249C498.555 461.427 502.2 459.735 503.631 459.735C505.063 459.605 506.755 458.434 507.406 457.262C508.577 455.05 508.837 455.18 511.44 457.523C513.002 458.954 515.215 459.995 516.256 459.995C517.297 459.995 520.811 461.557 524.065 463.64C529.792 467.284 550.616 477.306 552.308 477.306C554 477.306 535.258 464.16 527.059 459.605C522.764 457.132 518.729 454.269 518.338 453.228C517.948 452.186 516.126 451.275 514.174 451.275C511.31 451.275 510.92 451.015 512.351 449.323C513.262 448.282 513.653 446.069 513.132 444.247C512.742 442.425 511.961 434.095 511.57 425.635C511.31 417.176 510.529 408.195 509.878 405.722C508.967 401.427 508.837 401.687 508.056 409.497Z" fill="white" fill-opacity="0.1"/>
<path d="M600.464 410.277C599.944 415.223 599.553 424.334 599.553 430.451C599.553 436.568 599.033 442.295 598.382 443.336C597.601 444.377 597.601 446.46 598.382 448.282C599.293 450.885 599.163 451.275 596.169 451.275C594.477 451.275 592.655 452.186 592.265 453.228C591.744 454.399 587.839 457.392 583.414 459.865C574.954 464.811 559.206 475.744 559.206 476.655C559.206 477.956 583.154 466.503 590.312 461.818C592.134 460.646 594.607 459.865 595.779 460.126C596.95 460.386 598.902 459.345 599.944 457.783C601.766 455.18 601.766 455.18 603.978 457.653C605.28 459.084 607.232 460.126 608.403 459.995C609.705 459.995 613.219 461.557 616.473 463.64C623.371 467.935 643.935 477.696 644.586 476.915C645.367 476.264 628.187 464.421 618.816 459.215C614.781 456.872 611.137 454.269 610.746 453.228C610.356 452.186 608.924 451.275 607.492 451.275C605.67 451.275 605.02 450.494 605.28 447.631C605.54 441.254 603.328 408.846 602.286 404.941C601.505 401.818 601.115 402.729 600.464 410.277Z" fill="white" fill-opacity="0.1"/>
<path d="M46.0175 405.723C44.716 410.148 42.5034 447.371 43.4145 449.454C43.805 450.625 43.1542 451.276 41.4622 451.276C39.9004 451.276 37.9481 452.317 37.0371 453.749C36.126 455.05 33.2627 457.133 30.7898 458.434C24.6726 461.558 3.19758 476.265 3.84834 476.785C4.62925 477.566 22.5902 469.237 30.7898 464.291C34.6943 461.948 38.8592 459.996 40.1607 460.126C41.3321 460.126 43.2844 459.085 44.5859 457.653C46.7985 455.18 46.7985 455.18 48.6206 457.783C49.6618 459.215 51.4839 460.386 52.6553 460.386C53.8267 460.386 62.4167 464.291 71.5273 468.976C80.7681 473.662 88.5772 477.306 88.8375 476.916C89.7486 476.135 74.9113 465.723 65.28 460.256C60.985 457.913 56.69 454.92 55.7789 453.618C54.8679 452.317 53.0457 451.276 51.8744 451.276C49.9221 451.276 49.6618 449.323 49.2713 435.267C48.6206 414.313 47.1889 401.297 46.0175 405.723Z" fill="white" fill-opacity="0.1"/>
<path d="M693.132 406.373C692.872 412.751 690.789 443.987 690.529 445.419C690.399 446.07 690.789 447.762 691.31 448.933C691.961 450.755 691.57 451.276 689.618 451.276C688.056 451.276 686.104 452.317 685.193 453.619C684.282 454.92 679.987 457.914 675.692 460.256C667.753 464.681 651.614 475.744 651.614 476.786C651.614 477.697 660.724 473.532 673.609 466.894C680.377 463.25 686.885 460.386 688.186 460.386C689.488 460.386 691.31 459.215 692.351 457.783C694.173 455.18 694.173 455.18 696.386 457.653C697.688 459.085 699.64 460.126 700.811 460.126C702.113 459.996 706.278 461.948 710.182 464.291C718.382 469.237 736.343 477.566 737.124 476.786C737.774 476.265 716.299 461.558 710.182 458.434C707.709 457.133 704.846 455.05 703.935 453.749C703.024 452.317 701.071 451.276 699.51 451.276C697.818 451.276 697.167 450.625 697.557 449.584C698.599 446.981 695.865 406.764 694.434 404.421C693.653 402.989 693.262 403.51 693.132 406.373Z" fill="white" fill-opacity="0.1"/>
<path d="M878.989 405.723C877.688 410.148 875.475 447.371 876.386 449.454C876.777 450.625 876.126 451.276 874.434 451.276C872.872 451.276 870.92 452.317 870.009 453.749C869.098 455.05 866.234 457.133 863.761 458.434C857.775 461.558 836.169 476.265 836.82 476.785C837.471 477.566 852.438 470.668 862.2 465.072C866.755 462.469 871.571 460.386 872.872 460.386C874.304 460.386 876.256 459.085 877.297 457.523L879.38 454.66L881.462 457.523C882.503 459.085 884.456 460.386 885.627 460.386C886.798 460.386 895.388 464.291 904.499 468.976C913.74 473.662 921.549 477.306 921.809 476.916C922.72 476.135 907.883 465.723 898.252 460.256C893.957 457.913 889.662 454.92 888.751 453.618C887.84 452.317 886.017 451.276 884.846 451.276C882.894 451.276 882.634 449.323 882.243 435.267C881.592 414.313 880.161 401.297 878.989 405.723Z" fill="white" fill-opacity="0.1"/>
<path d="M785.149 417.697C784.629 425.115 784.108 435.658 783.978 441.124C783.718 449.714 783.327 451.276 781.505 451.276C780.334 451.276 778.512 452.317 777.601 453.749C776.69 455.05 773.826 457.133 771.353 458.434C764.195 462.078 743.761 476.135 744.412 476.916C744.802 477.306 752.611 473.662 761.852 468.976C770.963 464.291 779.553 460.386 780.724 460.386C781.896 460.386 783.848 459.085 784.889 457.523L786.972 454.66L789.054 457.523C790.095 459.085 792.178 460.386 793.609 460.386C795.171 460.386 799.596 462.339 803.631 464.681C812.611 469.887 828.88 477.566 829.531 476.785C830.182 476.265 808.707 461.558 802.59 458.434C800.117 457.133 797.254 455.05 796.343 453.749C795.431 452.317 793.609 451.276 792.438 451.276C790.616 451.276 790.225 449.714 789.965 441.124C789.444 421.992 788.013 404.421 786.972 404.421C786.451 404.421 785.54 410.408 785.149 417.697Z" fill="white" fill-opacity="0.1"/>
<path d="M-0.446866 483.814C-0.70717 485.376 -2.5293 514.399 -3.18005 527.024C-3.31021 529.107 -3.96097 530.668 -4.48157 530.668C-5.13233 530.668 -6.69415 531.71 -7.99567 533.011C-9.29719 534.313 -14.1128 537.697 -18.7983 540.43C-28.0391 546.026 -43.397 556.569 -43.397 557.48C-43.397 558.521 -34.026 554.096 -20.2299 546.937C-12.8113 543.033 -6.0434 539.779 -5.00218 539.779C-3.96097 539.779 -2.39914 538.608 -1.48808 537.306C0.334045 534.703 0.334045 534.703 1.89587 537.306C2.80693 538.608 4.75921 539.779 6.19088 539.779C7.7527 539.779 10.4859 540.82 12.308 542.252C18.4252 546.417 43.8048 558.651 43.8048 557.35C43.8048 556.438 27.7961 545.376 19.2061 540.43C14.6507 537.697 9.83513 534.443 8.53361 533.141C7.10194 531.71 5.40997 530.668 4.75921 530.668C3.9783 530.668 3.71799 529.367 4.2386 527.545C4.62906 525.723 4.4989 523.64 3.9783 522.729C3.45769 521.818 2.80693 514.399 2.54663 506.2C2.15617 492.794 0.203893 478.868 -0.446866 483.814Z" fill="white" fill-opacity="0.1"/>
<path d="M91.5705 489.02C91.0499 492.924 90.6595 502.035 90.6595 509.193C90.6595 517.002 90.1388 522.859 89.2278 523.77C88.1866 524.812 88.1866 525.983 89.2278 527.935C90.5293 530.148 90.3992 530.668 88.7072 530.668C87.5358 530.668 85.3232 532.1 83.7614 533.792C82.1996 535.484 78.8156 537.827 76.3428 539.128C71.2668 541.731 49.0109 556.699 49.0109 557.48C49.0109 558.521 58.5119 554.096 72.1779 546.937C79.5965 543.033 86.3644 539.779 87.4057 539.779C88.4469 539.779 90.0087 538.608 90.9198 537.306C92.7419 534.703 92.7419 534.703 94.3037 537.306C95.2148 538.608 97.0369 539.779 98.4686 539.779C99.9002 539.779 103.284 541.211 106.017 542.903C116.039 549.15 136.994 559.041 135.562 556.699C134.521 555.007 110.443 539.128 106.017 537.046C103.935 536.135 102.373 534.703 102.373 533.792C102.373 533.011 100.941 531.84 99.1193 531.449C96.3861 530.799 95.9957 530.018 96.6464 527.415C97.0369 525.723 97.0369 523.77 96.6464 522.989C96.256 522.339 95.4751 514.53 95.2148 505.679C94.8243 496.829 94.0434 487.848 93.3926 485.766C92.4816 482.252 92.3514 482.512 91.5705 489.02Z" fill="white" fill-opacity="0.1"/>
<path d="M183.978 491.102C183.458 496.048 183.067 505.028 183.067 511.145C183.067 517.523 182.417 522.989 181.636 523.77C180.594 524.811 180.594 525.983 181.636 527.935C182.937 530.148 182.807 530.668 181.115 530.668C179.944 530.668 177.731 532.1 176.169 533.792C174.607 535.484 171.223 537.826 168.751 539.128C163.675 541.731 141.419 556.698 141.419 557.479C141.419 558.39 150.659 554.226 164.716 546.937C172.135 543.033 178.902 539.779 179.553 539.779C180.334 539.779 182.026 538.738 183.458 537.566C185.8 535.354 185.931 535.354 187.102 537.566C187.883 538.738 189.445 539.779 190.876 539.779C192.178 539.779 196.733 541.861 200.898 544.334C205.063 546.807 213.132 550.842 218.859 553.445L229.271 558L224.716 554.226C222.243 552.013 214.694 546.937 207.926 542.772C201.289 538.607 195.432 534.573 195.171 533.662C194.911 532.881 193.219 531.839 191.527 531.449C189.184 530.798 188.534 529.887 188.794 527.154C189.054 520.386 186.842 487.588 185.8 484.725C185.02 482.772 184.499 484.594 183.978 491.102Z" fill="white" fill-opacity="0.1"/>
<path d="M554.911 486.417C553.609 492.794 551.527 527.024 552.308 528.976C552.698 529.887 551.527 530.928 549.705 531.319C547.882 531.84 546.06 532.881 545.8 533.662C545.54 534.573 539.553 538.738 532.525 543.033C525.627 547.328 518.078 552.404 515.865 554.486C511.7 558 511.83 558 522.112 553.445C527.839 550.842 535.909 546.807 540.073 544.334C544.238 541.861 548.794 539.779 550.095 539.779C551.527 539.779 553.089 538.738 553.869 537.566C555.041 535.354 555.171 535.354 557.514 537.566C558.945 538.738 560.637 539.779 561.418 539.779C562.069 539.779 568.837 543.033 576.256 546.937C590.312 554.226 599.553 558.39 599.553 557.479C599.553 556.699 577.297 541.731 572.221 539.128C569.748 537.826 566.364 535.484 564.802 533.792C563.24 532.1 561.028 530.668 559.856 530.668C558.164 530.668 558.034 530.148 559.336 527.935C560.377 525.983 560.377 524.811 559.336 523.77C558.555 522.989 557.904 516.742 557.774 509.193C557.644 502.035 557.253 492.924 556.733 489.02C555.822 482.122 555.822 481.991 554.911 486.417Z" fill="white" fill-opacity="0.1"/>
<path d="M647.319 487.718C645.887 496.829 643.935 527.024 644.716 528.846C645.106 529.887 643.935 530.928 642.113 531.319C640.291 531.839 638.468 532.881 638.208 533.662C637.948 534.573 632.091 538.607 625.453 542.772C618.685 546.937 611.137 552.013 608.664 554.226L604.108 558L609.314 555.918C616.343 553.054 628.967 546.677 634.954 542.902C637.688 541.21 640.941 539.779 642.373 539.779C643.805 539.779 645.757 538.607 646.668 537.306C648.49 534.703 648.49 534.703 650.052 537.306C650.963 538.607 652.525 539.779 653.566 539.779C654.477 539.779 661.375 543.033 668.794 546.937C682.46 554.095 691.961 558.521 691.961 557.479C691.961 556.698 669.705 541.731 664.629 539.128C662.156 537.826 658.772 535.484 657.21 533.792C655.649 532.1 653.436 530.668 652.265 530.668C650.573 530.668 650.442 530.148 651.744 527.935C652.785 525.983 652.785 524.811 651.744 523.77C650.963 522.989 650.312 516.612 650.182 508.542C650.182 500.993 649.662 491.883 649.141 488.369L648.23 481.861L647.319 487.718Z" fill="white" fill-opacity="0.1"/>
<path d="M739.727 488.369C739.076 491.883 738.555 500.863 738.295 508.022C738.035 515.31 737.384 521.948 736.863 522.729C736.343 523.64 736.343 525.722 736.733 527.544C737.254 529.236 736.994 530.668 736.343 530.668C735.692 530.668 733.74 531.839 732.048 533.271C730.486 534.703 723.718 539.258 717.08 543.293C710.573 547.458 703.284 552.403 700.811 554.356L696.516 558L701.722 555.918C709.141 552.924 724.499 545.115 728.664 542.252C730.486 540.82 733.219 539.779 734.651 539.779C736.213 539.779 738.165 538.607 739.076 537.306C740.898 534.703 740.898 534.703 742.46 537.306C743.371 538.607 744.933 539.779 745.974 539.779C746.885 539.779 753.783 543.033 761.202 546.937C775.649 554.486 784.369 558.39 784.369 557.349C784.369 556.959 777.21 551.883 768.49 546.286C759.64 540.56 751.05 534.703 749.488 533.271C747.796 531.839 745.584 530.668 744.542 530.668C742.981 530.668 742.981 530.148 744.282 528.065C745.584 526.113 745.584 525.202 744.282 523.9C743.241 522.859 742.72 517.393 742.59 507.892C742.59 500.082 742.07 490.972 741.549 487.718L740.638 481.861L739.727 488.369Z" fill="white" fill-opacity="0.1"/>
<path d="M832.525 483.813C832.265 485.375 830.442 513.878 829.792 527.024C829.661 529.106 829.011 530.668 828.49 530.668C827.839 530.668 826.278 531.709 824.976 533.011C823.674 534.312 818.859 537.696 814.173 540.429C805.193 545.896 789.575 556.568 789.575 557.479C789.575 558.781 814.954 546.547 821.071 542.252C822.894 540.82 825.627 539.779 827.058 539.779C828.62 539.779 830.573 538.607 831.484 537.306C833.306 534.703 833.306 534.703 834.868 537.306C835.779 538.607 837.731 539.779 839.163 539.779C840.724 539.779 843.458 540.82 845.28 542.252C851.137 546.286 876.776 558.651 876.776 557.349C876.776 556.568 861.028 545.766 852.178 540.429C847.492 537.696 842.677 534.312 841.375 533.011C840.074 531.709 838.382 530.668 837.731 530.668C836.95 530.668 836.69 529.366 837.21 527.544C837.601 525.722 837.471 523.51 836.95 522.599C836.299 521.688 835.648 514.659 835.518 507.111C835.128 494.356 833.176 479.258 832.525 483.813Z" fill="white" fill-opacity="0.1"/>
<path d="M927.56 487.653C927.039 491.557 926.649 500.668 926.649 507.826C926.649 515.635 926.128 521.492 925.217 522.403C924.176 523.444 924.176 524.616 925.217 526.568C926.518 528.781 926.388 529.301 924.826 529.301C923.785 529.301 921.182 530.863 919.23 532.685C917.278 534.507 913.894 536.98 911.681 538.021C907.126 540.494 885 555.332 885 556.112C885 557.154 894.501 552.729 908.167 545.57C915.586 541.666 922.354 538.412 923.395 538.412C924.436 538.412 925.998 537.24 926.909 535.939C928.731 533.336 928.731 533.336 930.293 535.939C931.204 537.24 933.026 538.412 934.458 538.412C935.889 538.412 939.273 539.843 942.007 541.535C952.028 547.783 972.983 557.674 971.551 555.332C970.51 553.64 946.432 537.761 942.007 535.679C939.924 534.768 938.362 533.336 938.362 532.425C938.362 531.644 936.931 530.473 935.108 530.082C932.375 529.431 931.985 528.65 932.636 526.047C933.026 524.355 933.026 522.273 932.505 521.492C932.115 520.711 931.334 513.293 931.074 504.833C930.683 496.503 930.033 487.522 929.382 485.05C928.471 480.624 928.471 480.624 927.56 487.653Z" fill="white" fill-opacity="0.1"/>
<path d="M462.503 485.115C461.462 487.458 458.989 528.326 459.77 529.627C460.03 530.017 459.119 530.929 457.687 531.319C456.125 531.84 453.653 533.401 452.091 534.833C450.529 536.135 442.98 541.341 435.431 546.286C427.752 551.102 421.115 555.788 420.724 556.568C419.553 558.391 436.993 550.451 447.275 544.464C451.7 541.861 456.386 539.779 457.687 539.779C458.989 539.779 460.811 538.738 461.462 537.436C462.763 535.354 463.023 535.354 464.715 537.436C465.626 538.738 467.449 539.779 468.62 539.779C469.921 539.779 474.477 541.861 478.772 544.464C488.143 549.801 503.371 556.959 504.151 556.178C504.932 555.527 490.225 545.115 481.765 540.299C478.251 538.347 473.956 535.354 472.394 533.662C470.833 531.97 468.75 530.668 467.839 530.668C466.538 530.668 466.017 526.634 465.757 514.66C465.106 496.048 463.674 482.382 462.503 485.115Z" fill="white" fill-opacity="0.1"/>
</g>
<defs>
<clipPath id="clip0">
<rect width="926" height="484" fill="white"/>
</clipPath>
</defs>
</svg>
